<?xml version="1.0" encoding="utf-8"?>
<!-- GW -->
<!DOCTYPE svg PUBLIC "-//W3C//DTD SVG 1.1//EN" "http://www.w3.org/Graphics/SVG/1.1/DTD/svg11.dtd" [
	<!ENTITY ns_svg "http://www.w3.org/2000/svg">
	<!ENTITY ns_xlink "http://www.w3.org/1999/xlink">
]>
<svg  version="1.1" id="Ebene_1" xmlns="&ns_svg;" xmlns:xlink="&ns_xlink;" width="141.732" height="94.488"
	 viewBox="0 0 141.732 94.488" overflow="visible" enable-background="new 0 0 141.732 94.488" xml:space="preserve">
<g>
	<path fill-rule="evenodd" clip-rule="evenodd" fill="#004075" d="M70.865,0C52.135,0,34.476,4.815,21.143,13.557
		C7.507,22.5,0,34.459,0,47.244c0,12.784,7.507,24.744,21.143,33.68c13.333,8.741,30.992,13.564,49.722,13.564
		c18.737,0,36.399-4.823,49.733-13.564c13.635-8.937,21.135-20.896,21.135-33.68c0-12.784-7.5-24.743-21.135-33.687
		C107.264,4.815,89.602,0,70.865,0L70.865,0z"/>
	<path fill-rule="evenodd" clip-rule="evenodd" fill="#FFFFFF" d="M70.865,1.94c18.352,0,35.629,4.699,48.643,13.232
		c13.066,8.564,20.262,19.954,20.262,32.071s-7.195,23.505-20.262,32.066c-13.021,8.538-30.297,13.239-48.643,13.239
		c-18.344,0-35.613-4.701-48.636-13.239C9.163,70.747,1.967,59.357,1.967,47.244c0-12.114,7.196-23.503,20.262-32.071
		C35.245,6.639,52.515,1.94,70.865,1.94L70.865,1.94z"/>
	<path fill-rule="evenodd" clip-rule="evenodd" fill="#004075" d="M137.482,47.244c0,23.755-29.826,43.013-66.615,43.013
		S4.253,70.999,4.253,47.244c0-23.755,29.825-43.013,66.614-43.013S137.482,23.489,137.482,47.244L137.482,47.244z"/>
	<path fill-rule="evenodd" clip-rule="evenodd" fill="#FFFFFF" d="M45.704,78.48c0.4,0.154,0.724,0.263,0.972,0.325
		c0.248,0.064,0.537,0.096,0.865,0.096c0.639,0,0.957-0.276,0.957-0.83c0-0.217-0.104-0.407-0.306-0.571
		c-0.203-0.165-0.448-0.311-0.735-0.441c-0.287-0.13-0.572-0.274-0.861-0.437c-0.287-0.16-0.531-0.396-0.735-0.703
		c-0.203-0.308-0.303-0.674-0.303-1.102c0-0.623,0.216-1.109,0.651-1.459c0.433-0.351,1.017-0.525,1.754-0.525
		c0.621,0,1.237,0.124,1.846,0.367l-0.378,1.166c-0.518-0.203-0.987-0.306-1.408-0.306c-0.538,0-0.806,0.234-0.806,0.703
		c0,0.168,0.07,0.326,0.214,0.474c0.143,0.146,0.325,0.269,0.546,0.366c0.22,0.099,0.456,0.22,0.71,0.363
		c0.251,0.144,0.487,0.295,0.707,0.457c0.221,0.16,0.405,0.379,0.546,0.655c0.144,0.276,0.216,0.593,0.216,0.95
		c0,0.644-0.24,1.154-0.714,1.533c-0.475,0.377-1.108,0.566-1.901,0.566c-0.63,0-1.328-0.148-2.099-0.44L45.704,78.48L45.704,78.48z
		 M52.173,72.97h4.346l-0.201,1.218h-2.581v1.584h2.426v1.207h-2.426v1.797h2.782v1.218h-4.346V72.97L52.173,72.97z M58.681,72.97
		h1.565v7.022h-1.565V72.97L58.681,72.97z M63.763,74.188h-1.732V72.97h5.029v1.218h-1.732v5.805h-1.565V74.188L63.763,74.188z
		 M73.297,74.407l-1.479,0.525l-0.178-1.177l2.122-0.787h1.059v7.023h-1.523V74.407L73.297,74.407z M78.254,76.371
		c-0.607-0.399-0.912-0.925-0.912-1.576c0-0.657,0.234-1.149,0.709-1.474c0.471-0.325,1.012-0.488,1.621-0.488
		c0.279,0,0.551,0.037,0.814,0.11c0.262,0.074,0.512,0.184,0.75,0.331c0.238,0.146,0.428,0.351,0.57,0.613
		c0.145,0.264,0.217,0.565,0.217,0.907c0,0.624-0.334,1.117-0.998,1.481c0.832,0.469,1.25,1.078,1.25,1.826
		c0,0.357-0.078,0.673-0.238,0.945c-0.154,0.273-0.363,0.484-0.623,0.636c-0.26,0.149-0.537,0.262-0.83,0.336
		c-0.293,0.072-0.598,0.109-0.912,0.109c-0.316,0-0.615-0.037-0.904-0.109c-0.285-0.074-0.557-0.187-0.809-0.336
		c-0.25-0.151-0.451-0.362-0.602-0.636c-0.152-0.272-0.227-0.588-0.227-0.945C77.131,77.368,77.506,76.79,78.254,76.371
		L78.254,76.371z M78.943,78.691c0.156,0.153,0.4,0.23,0.729,0.23s0.582-0.078,0.76-0.236c0.18-0.157,0.27-0.353,0.27-0.583
		c0-0.251-0.1-0.46-0.301-0.625c-0.199-0.164-0.492-0.326-0.875-0.488c-0.547,0.295-0.82,0.666-0.82,1.113
		C78.705,78.341,78.785,78.538,78.943,78.691L78.943,78.691z M80.447,74.795c0-0.503-0.258-0.755-0.775-0.755
		c-0.506,0-0.756,0.252-0.756,0.755c0,0.323,0.279,0.617,0.84,0.883C80.219,75.426,80.447,75.132,80.447,74.795L80.447,74.795z
		 M85.283,79.646c-0.395-0.321-0.674-0.729-0.834-1.223c-0.162-0.493-0.24-1.059-0.24-1.695c0-1.184,0.283-2.127,0.855-2.834
		c0.57-0.707,1.344-1.061,2.324-1.061c0.469,0,0.924,0.077,1.363,0.23l-0.23,1.155c-0.35-0.118-0.717-0.179-1.104-0.179
		c-0.367,0-0.693,0.133-0.975,0.399c-0.279,0.265-0.475,0.685-0.586,1.26c0.314-0.309,0.723-0.463,1.227-0.463
		c0.596,0,1.105,0.188,1.531,0.562c0.428,0.375,0.643,0.954,0.643,1.738c0,0.419-0.08,0.818-0.242,1.196
		c-0.162,0.379-0.438,0.705-0.83,0.982c-0.393,0.275-0.867,0.414-1.428,0.414C86.172,80.129,85.68,79.969,85.283,79.646
		L85.283,79.646z M87.457,78.56c0.15-0.242,0.225-0.565,0.225-0.971c0-0.442-0.076-0.753-0.23-0.935s-0.34-0.272-0.557-0.272
		c-0.434,0-0.809,0.174-1.123,0.524c0.008,0.687,0.082,1.193,0.227,1.522c0.143,0.329,0.396,0.493,0.76,0.493
		C87.072,78.922,87.307,78.802,87.457,78.56L87.457,78.56z M92.271,76.371c-0.609-0.399-0.914-0.925-0.914-1.576
		c0-0.657,0.236-1.149,0.711-1.474c0.471-0.325,1.012-0.488,1.621-0.488c0.279,0,0.551,0.037,0.814,0.11
		c0.26,0.074,0.512,0.184,0.75,0.331c0.236,0.146,0.428,0.351,0.572,0.613c0.143,0.264,0.215,0.565,0.215,0.907
		c0,0.624-0.334,1.117-0.998,1.481c0.834,0.469,1.25,1.078,1.25,1.826c0,0.357-0.08,0.673-0.236,0.945
		c-0.158,0.273-0.367,0.484-0.625,0.636c-0.258,0.149-0.535,0.262-0.83,0.336c-0.293,0.072-0.598,0.109-0.912,0.109
		s-0.617-0.037-0.904-0.109c-0.285-0.074-0.557-0.187-0.807-0.336c-0.254-0.151-0.455-0.362-0.605-0.636
		c-0.15-0.272-0.225-0.588-0.225-0.945C91.148,77.368,91.521,76.79,92.271,76.371L92.271,76.371z M92.961,78.691
		c0.156,0.153,0.398,0.23,0.729,0.23c0.328,0,0.582-0.078,0.762-0.236c0.178-0.157,0.268-0.353,0.268-0.583
		c0-0.251-0.102-0.46-0.301-0.625c-0.199-0.164-0.492-0.326-0.875-0.488c-0.547,0.295-0.82,0.666-0.82,1.113
		C92.723,78.341,92.803,78.538,92.961,78.691L92.961,78.691z M94.465,74.795c0-0.503-0.258-0.755-0.775-0.755
		c-0.506,0-0.758,0.252-0.758,0.755c0,0.323,0.283,0.617,0.84,0.883C94.234,75.426,94.465,75.132,94.465,74.795L94.465,74.795z
		 M25.079,64.455V26.34H49.17v5.886H32.011v10.018h15.233v5.885H32.011v16.326H25.079L25.079,64.455z M64.625,59.285
		c2.494,0,4.306-0.421,5.445-1.265c1.138-0.843,1.703-2.034,1.703-3.575c0-0.916-0.191-1.704-0.576-2.365
		c-0.385-0.66-0.934-1.255-1.65-1.787c-0.715-0.531-1.586-1.026-2.614-1.484c-1.025-0.458-2.197-0.907-3.519-1.35
		c-1.319-0.475-2.594-0.997-3.821-1.566c-1.23-0.567-2.312-1.273-3.246-2.118c-0.935-0.842-1.688-1.851-2.254-3.024
		c-0.57-1.173-0.853-2.585-0.853-4.236c0-3.444,1.19-6.149,3.574-8.111c2.383-1.961,5.629-2.942,9.737-2.942
		c2.38,0,4.5,0.266,6.352,0.797c1.852,0.531,3.309,1.11,4.373,1.733l-2.145,5.61c-1.248-0.696-2.613-1.229-4.1-1.596
		c-1.484-0.366-3.016-0.55-4.592-0.55c-1.871,0-3.328,0.384-4.371,1.155c-1.047,0.769-1.568,1.852-1.568,3.245
		c0,0.843,0.173,1.567,0.521,2.172c0.348,0.605,0.844,1.146,1.486,1.623c0.641,0.477,1.393,0.917,2.256,1.32
		c0.86,0.403,1.805,0.789,2.831,1.155c1.796,0.661,3.4,1.33,4.814,2.008c1.41,0.679,2.602,1.485,3.574,2.42
		c0.971,0.936,1.713,2.036,2.229,3.3c0.512,1.266,0.77,2.797,0.77,4.593c0,3.446-1.221,6.114-3.658,8.003s-6.004,2.832-10.697,2.832
		c-1.578,0-3.018-0.102-4.317-0.303c-1.303-0.201-2.459-0.449-3.465-0.742c-1.011-0.293-1.881-0.596-2.615-0.907
		c-0.732-0.312-1.318-0.597-1.758-0.853l2.035-5.665c0.989,0.55,2.327,1.1,4.014,1.65C60.205,59.01,62.242,59.285,64.625,59.285
		L64.625,59.285z M111.354,64.455L91.906,38.583v25.872h-6.822V26.34h5.248l19.449,25.869V26.34h6.875v38.115H111.354
		L111.354,64.455z"/>
</g>
</svg>
